<?xml version="1.0" encoding="UTF-8"?>
<!--Generator: Apple Native CoreSVG 175-->
<!DOCTYPE svg
PUBLIC "-//W3C//DTD SVG 1.1//EN"
       "http://www.w3.org/Graphics/SVG/1.1/DTD/svg11.dtd">
<svg version="1.1" xmlns="http://www.w3.org/2000/svg" xmlns:xlink="http://www.w3.org/1999/xlink" width="3300" height="2200">
 <!--glyph: "uni100393.medium", point size: 100.0, font version: "17.1d1e1", template writer version: "65.1"-->
 <style>.hierarchical-0:primary {fill:#212121}
.hierarchical-1:secondary {fill:#4D4D4D}

.SFSymbolsPreview212121 {fill:#212121;opacity:1.0}
.SFSymbolsPreview4D4D4D {fill:#4D4D4D;opacity:1.0}
</style>
 <g id="Notes">
  <rect height="2200" id="artboard" style="fill:white;opacity:1" width="3300" x="0" y="0"/>
  <line style="fill:none;stroke:black;opacity:1;stroke-width:0.5;" x1="263" x2="3036" y1="292" y2="292"/>
  <text style="stroke:none;fill:black;font-family:sans-serif;font-size:13;font-weight:bold;" transform="matrix(1 0 0 1 263 322)">Weight/Scale Variations</text>
  <text style="stroke:none;fill:black;font-family:sans-serif;font-size:13;text-anchor:middle;" transform="matrix(1 0 0 1 559.711 322)">Ultralight</text>
  <text style="stroke:none;fill:black;font-family:sans-serif;font-size:13;text-anchor:middle;" transform="matrix(1 0 0 1 856.422 322)">Thin</text>
  <text style="stroke:none;fill:black;font-family:sans-serif;font-size:13;text-anchor:middle;" transform="matrix(1 0 0 1 1153.13 322)">Light</text>
  <text style="stroke:none;fill:black;font-family:sans-serif;font-size:13;text-anchor:middle;" transform="matrix(1 0 0 1 1449.84 322)">Regular</text>
  <text style="stroke:none;fill:black;font-family:sans-serif;font-size:13;text-anchor:middle;" transform="matrix(1 0 0 1 1746.56 322)">Medium</text>
  <text style="stroke:none;fill:black;font-family:sans-serif;font-size:13;text-anchor:middle;" transform="matrix(1 0 0 1 2043.27 322)">Semibold</text>
  <text style="stroke:none;fill:black;font-family:sans-serif;font-size:13;text-anchor:middle;" transform="matrix(1 0 0 1 2339.98 322)">Bold</text>
  <text style="stroke:none;fill:black;font-family:sans-serif;font-size:13;text-anchor:middle;" transform="matrix(1 0 0 1 2636.69 322)">Heavy</text>
  <text style="stroke:none;fill:black;font-family:sans-serif;font-size:13;text-anchor:middle;" transform="matrix(1 0 0 1 2933.4 322)">Black</text>
  <line style="fill:none;stroke:black;opacity:1;stroke-width:0.5;" x1="263" x2="3036" y1="1903" y2="1903"/>
  <g transform="matrix(1 0 0 1 263 1933)">
   <path d="M9.24805 0.830078Q10.8691 0.830078 12.2949 0.214844Q13.7207-0.400391 14.8096-1.49414Q15.8984-2.58789 16.5186-4.01367Q17.1387-5.43945 17.1387-7.05078Q17.1387-8.66211 16.5186-10.0879Q15.8984-11.5137 14.8047-12.6074Q13.7109-13.7012 12.2852-14.3164Q10.8594-14.9316 9.23828-14.9316Q7.62695-14.9316 6.20117-14.3164Q4.77539-13.7012 3.69141-12.6074Q2.60742-11.5137 1.9873-10.0879Q1.36719-8.66211 1.36719-7.05078Q1.36719-5.43945 1.9873-4.01367Q2.60742-2.58789 3.69629-1.49414Q4.78516-0.400391 6.21094 0.214844Q7.63672 0.830078 9.24805 0.830078ZM9.24805-0.654297Q7.91992-0.654297 6.7627-1.14746Q5.60547-1.64062 4.73145-2.51953Q3.85742-3.39844 3.36426-4.56055Q2.87109-5.72266 2.87109-7.05078Q2.87109-8.37891 3.35938-9.54102Q3.84766-10.7031 4.72168-11.582Q5.5957-12.4609 6.75293-12.9541Q7.91016-13.4473 9.23828-13.4473Q10.5762-13.4473 11.7334-12.9541Q12.8906-12.4609 13.7695-11.582Q14.6484-10.7031 15.1465-9.54102Q15.6445-8.37891 15.6445-7.05078Q15.6445-5.72266 15.1514-4.56055Q14.6582-3.39844 13.7842-2.51953Q12.9102-1.64062 11.748-1.14746Q10.5859-0.654297 9.24805-0.654297ZM5.6543-7.05078Q5.6543-6.72852 5.85938-6.52832Q6.06445-6.32812 6.40625-6.32812L8.51562-6.32812L8.51562-4.20898Q8.51562-3.88672 8.71094-3.67676Q8.90625-3.4668 9.23828-3.4668Q9.56055-3.4668 9.77051-3.67676Q9.98047-3.88672 9.98047-4.20898L9.98047-6.32812L12.0898-6.32812Q12.4219-6.32812 12.627-6.52832Q12.832-6.72852 12.832-7.05078Q12.832-7.38281 12.627-7.58789Q12.4219-7.79297 12.0898-7.79297L9.98047-7.79297L9.98047-9.90234Q9.98047-10.2344 9.77051-10.4443Q9.56055-10.6543 9.23828-10.6543Q8.90625-10.6543 8.71094-10.4443Q8.51562-10.2344 8.51562-9.90234L8.51562-7.79297L6.40625-7.79297Q6.06445-7.79297 5.85938-7.58789Q5.6543-7.38281 5.6543-7.05078Z"/>
  </g>
  <g transform="matrix(1 0 0 1 281.867 1933)">
   <path d="M11.709 2.91016Q13.75 2.91016 15.5518 2.12891Q17.3535 1.34766 18.7305-0.0292969Q20.1074-1.40625 20.8887-3.20801Q21.6699-5.00977 21.6699-7.05078Q21.6699-9.0918 20.8887-10.8936Q20.1074-12.6953 18.7305-14.0723Q17.3535-15.4492 15.5469-16.2305Q13.7402-17.0117 11.6992-17.0117Q9.6582-17.0117 7.85645-16.2305Q6.05469-15.4492 4.68262-14.0723Q3.31055-12.6953 2.5293-10.8936Q1.74805-9.0918 1.74805-7.05078Q1.74805-5.00977 2.5293-3.20801Q3.31055-1.40625 4.6875-0.0292969Q6.06445 1.34766 7.86621 2.12891Q9.66797 2.91016 11.709 2.91016ZM11.709 1.25Q9.98047 1.25 8.47656 0.605469Q6.97266-0.0390625 5.83496-1.17676Q4.69727-2.31445 4.05762-3.81836Q3.41797-5.32227 3.41797-7.05078Q3.41797-8.7793 4.05762-10.2832Q4.69727-11.7871 5.83008-12.9297Q6.96289-14.0723 8.4668-14.7119Q9.9707-15.3516 11.6992-15.3516Q13.4277-15.3516 14.9316-14.7119Q16.4355-14.0723 17.5781-12.9297Q18.7207-11.7871 19.3652-10.2832Q20.0098-8.7793 20.0098-7.05078Q20.0098-5.32227 19.3701-3.81836Q18.7305-2.31445 17.5928-1.17676Q16.4551-0.0390625 14.9463 0.605469Q13.4375 1.25 11.709 1.25ZM7.17773-7.05078Q7.17773-6.69922 7.41211-6.47461Q7.64648-6.25 8.01758-6.25L10.8887-6.25L10.8887-3.36914Q10.8887-2.99805 11.1133-2.76855Q11.3379-2.53906 11.6895-2.53906Q12.0605-2.53906 12.29-2.76855Q12.5195-2.99805 12.5195-3.36914L12.5195-6.25L15.4004-6.25Q15.7715-6.25 16.001-6.47461Q16.2305-6.69922 16.2305-7.05078Q16.2305-7.42188 16.001-7.65137Q15.7715-7.88086 15.4004-7.88086L12.5195-7.88086L12.5195-10.752Q12.5195-11.1328 12.29-11.3623Q12.0605-11.5918 11.6895-11.5918Q11.3379-11.5918 11.1133-11.3574Q10.8887-11.123 10.8887-10.752L10.8887-7.88086L8.01758-7.88086Q7.63672-7.88086 7.40723-7.65137Q7.17773-7.42188 7.17773-7.05078Z"/>
  </g>
  <g transform="matrix(1 0 0 1 305.646 1933)">
   <path d="M14.9707 5.66406Q17.0605 5.66406 18.96 5.01465Q20.8594 4.36523 22.4512 3.19336Q24.043 2.02148 25.2197 0.429688Q26.3965-1.16211 27.0459-3.06641Q27.6953-4.9707 27.6953-7.05078Q27.6953-9.14062 27.0459-11.04Q26.3965-12.9395 25.2197-14.5312Q24.043-16.123 22.4512-17.2998Q20.8594-18.4766 18.9551-19.126Q17.0508-19.7754 14.9609-19.7754Q12.8711-19.7754 10.9717-19.126Q9.07227-18.4766 7.48535-17.2998Q5.89844-16.123 4.72168-14.5312Q3.54492-12.9395 2.90039-11.04Q2.25586-9.14062 2.25586-7.05078Q2.25586-4.9707 2.90527-3.06641Q3.55469-1.16211 4.72656 0.429688Q5.89844 2.02148 7.49023 3.19336Q9.08203 4.36523 10.9814 5.01465Q12.8809 5.66406 14.9707 5.66406ZM14.9707 3.84766Q13.1641 3.84766 11.5283 3.2959Q9.89258 2.74414 8.53516 1.74805Q7.17773 0.751953 6.17676-0.610352Q5.17578-1.97266 4.62891-3.6084Q4.08203-5.24414 4.08203-7.05078Q4.08203-8.86719 4.62891-10.5029Q5.17578-12.1387 6.17188-13.501Q7.16797-14.8633 8.52539-15.8594Q9.88281-16.8555 11.5186-17.4023Q13.1543-17.9492 14.9609-17.9492Q16.7773-17.9492 18.4131-17.4023Q20.0488-16.8555 21.4111-15.8594Q22.7734-14.8633 23.7695-13.501Q24.7656-12.1387 25.3174-10.5029Q25.8691-8.86719 25.8691-7.05078Q25.8789-5.24414 25.332-3.6084Q24.7852-1.97266 23.7842-0.610352Q22.7832 0.751953 21.4209 1.74805Q20.0586 2.74414 18.4229 3.2959Q16.7871 3.84766 14.9707 3.84766ZM9.19922-7.05078Q9.19922-6.66992 9.45801-6.4209Q9.7168-6.17188 10.1172-6.17188L14.0625-6.17188L14.0625-2.2168Q14.0625-1.81641 14.3115-1.55762Q14.5605-1.29883 14.9512-1.29883Q15.3516-1.29883 15.6104-1.55273Q15.8691-1.80664 15.8691-2.2168L15.8691-6.17188L19.8242-6.17188Q20.2246-6.17188 20.4785-6.4209Q20.7324-6.66992 20.7324-7.05078Q20.7324-7.46094 20.4785-7.71484Q20.2246-7.96875 19.8242-7.96875L15.8691-7.96875L15.8691-11.9141Q15.8691-12.3242 15.6104-12.583Q15.3516-12.8418 14.9512-12.8418Q14.5605-12.8418 14.3115-12.583Q14.0625-12.3242 14.0625-11.9141L14.0625-7.96875L10.1172-7.96875Q9.70703-7.96875 9.45312-7.71484Q9.19922-7.46094 9.19922-7.05078Z"/>
  </g>
  <text style="stroke:none;fill:black;font-family:sans-serif;font-size:13;font-weight:bold;" transform="matrix(1 0 0 1 263 1953)">Design Variations</text>
  <text style="stroke:none;fill:black;font-family:sans-serif;font-size:13;" transform="matrix(1 0 0 1 263 1971)">Symbols are supported in up to nine weights and three scales.</text>
  <text style="stroke:none;fill:black;font-family:sans-serif;font-size:13;" transform="matrix(1 0 0 1 263 1989)">For optimal layout with text and other symbols, vertically align</text>
  <text style="stroke:none;fill:black;font-family:sans-serif;font-size:13;" transform="matrix(1 0 0 1 263 2007)">symbols with the adjacent text.</text>
  <line style="fill:none;stroke:#00AEEF;stroke-width:0.5;opacity:1.0;" x1="776" x2="776" y1="1919" y2="1933"/>
  <g transform="matrix(1 0 0 1 776 1933)">
   <path d="M3.31055 0.15625Q3.70117 0.15625 3.91602-0.00976562Q4.13086-0.175781 4.26758-0.585938L5.52734-4.0332L11.2891-4.0332L12.5488-0.585938Q12.6855-0.175781 12.9004-0.00976562Q13.1152 0.15625 13.4961 0.15625Q13.8867 0.15625 14.1162-0.0585938Q14.3457-0.273438 14.3457-0.644531Q14.3457-0.869141 14.2383-1.17188L9.6582-13.3691Q9.48242-13.8184 9.17969-14.043Q8.87695-14.2676 8.4082-14.2676Q7.5-14.2676 7.17773-13.3789L2.59766-1.16211Q2.49023-0.859375 2.49023-0.634766Q2.49023-0.263672 2.70996-0.0537109Q2.92969 0.15625 3.31055 0.15625ZM6.00586-5.51758L8.37891-12.0898L8.42773-12.0898L10.8008-5.51758Z"/>
  </g>
  <line style="fill:none;stroke:#00AEEF;stroke-width:0.5;opacity:1.0;" x1="793.197" x2="793.197" y1="1919" y2="1933"/>
  <text style="stroke:none;fill:black;font-family:sans-serif;font-size:13;font-weight:bold;" transform="matrix(1 0 0 1 776 1953)">Margins</text>
  <text style="stroke:none;fill:black;font-family:sans-serif;font-size:13;" transform="matrix(1 0 0 1 776 1971)">Leading and trailing margins on the left and right side of each symbol</text>
  <text style="stroke:none;fill:black;font-family:sans-serif;font-size:13;" transform="matrix(1 0 0 1 776 1989)">can be adjusted by modifying the x-location of the margin guidelines.</text>
  <text style="stroke:none;fill:black;font-family:sans-serif;font-size:13;" transform="matrix(1 0 0 1 776 2007)">Modifications are automatically applied proportionally to all</text>
  <text style="stroke:none;fill:black;font-family:sans-serif;font-size:13;" transform="matrix(1 0 0 1 776 2025)">scales and weights.</text>
  <g transform="matrix(1 0 0 1 1289 1933)">
   <path d="M2.8418 1.86523L4.54102 3.57422Q5.18555 4.22852 5.90332 4.17969Q6.62109 4.13086 7.31445 3.35938L18.0078-8.42773L17.041-9.4043L6.42578 2.27539Q6.16211 2.57812 5.89355 2.61719Q5.625 2.65625 5.27344 2.30469L4.10156 1.14258Q3.75 0.791016 3.79395 0.522461Q3.83789 0.253906 4.14062-0.0195312L15.6152-10.8203L14.6387-11.7871L3.04688-0.898438Q2.30469-0.214844 2.25098 0.498047Q2.19727 1.21094 2.8418 1.86523ZM9.25781-16.3281Q8.94531-16.0254 8.90625-15.6348Q8.86719-15.2441 9.04297-14.9512Q9.21875-14.6777 9.55566-14.541Q9.89258-14.4043 10.3809-14.5215Q11.4746-14.7754 12.5977-14.7314Q13.7207-14.6875 14.7949-13.9844L14.209-12.5293Q13.9551-11.9043 14.0674-11.4404Q14.1797-10.9766 14.5801-10.5664L16.875-8.25195Q17.2363-7.88086 17.5781-7.82227Q17.9199-7.76367 18.3398-7.8418L19.4043-8.03711L20.0684-7.36328L20.0293-6.80664Q20-6.43555 20.1221-6.12305Q20.2441-5.81055 20.6055-5.44922L21.3672-4.70703Q21.7285-4.3457 22.1533-4.33105Q22.5781-4.31641 22.9297-4.66797L25.8398-7.58789Q26.1914-7.93945 26.1816-8.35449Q26.1719-8.76953 25.8105-9.13086L25.0391-9.89258Q24.6875-10.2539 24.3799-10.3857Q24.0723-10.5176 23.7109-10.4883L23.1348-10.4395L22.4902-11.0742L22.7344-12.1973Q22.832-12.6172 22.6953-12.9834Q22.5586-13.3496 22.1191-13.7891L19.9219-15.9766Q18.6719-17.2168 17.2607-17.8369Q15.8496-18.457 14.4189-18.4814Q12.9883-18.5059 11.665-17.959Q10.3418-17.4121 9.25781-16.3281ZM10.752-15.957Q11.6602-16.6211 12.7002-16.9043Q13.7402-17.1875 14.8047-17.085Q15.8691-16.9824 16.8701-16.5137Q17.8711-16.0449 18.7012-15.2051L21.1328-12.793Q21.3086-12.6172 21.3525-12.4512Q21.3965-12.2852 21.3379-12.0312L21.0156-10.5469L22.5195-9.0625L23.5059-9.12109Q23.6914-9.13086 23.7891-9.09668Q23.8867-9.0625 24.0332-8.91602L24.6094-8.33984L22.168-5.89844L21.5918-6.47461Q21.4453-6.62109 21.4062-6.71875Q21.3672-6.81641 21.377-7.01172L21.4453-7.98828L19.9512-9.47266L18.4277-9.21875Q18.1836-9.16992 18.042-9.2041Q17.9004-9.23828 17.7148-9.41406L15.7129-11.416Q15.5176-11.5918 15.4932-11.7529Q15.4688-11.9141 15.5859-12.1875L16.4648-14.2773Q15.293-15.3711 13.8281-15.791Q12.3633-16.2109 10.8398-15.7617Q10.7227-15.7324 10.6885-15.8057Q10.6543-15.8789 10.752-15.957Z"/>
  </g>
  <text style="stroke:none;fill:black;font-family:sans-serif;font-size:13;font-weight:bold;" transform="matrix(1 0 0 1 1289 1953)">Exporting</text>
  <text style="stroke:none;fill:black;font-family:sans-serif;font-size:13;" transform="matrix(1 0 0 1 1289 1971)">Symbols should be outlined when exporting to ensure the</text>
  <text style="stroke:none;fill:black;font-family:sans-serif;font-size:13;" transform="matrix(1 0 0 1 1289 1989)">design is preserved when submitting to Xcode.</text>
  <text id="template-version" style="stroke:none;fill:black;font-family:sans-serif;font-size:13;text-anchor:end;" transform="matrix(1 0 0 1 3036 1933)">Template v.3.0</text>
  <text style="stroke:none;fill:black;font-family:sans-serif;font-size:13;text-anchor:end;" transform="matrix(1 0 0 1 3036 1951)">Requires Xcode 13 or greater</text>
  <text id="descriptive-name" style="stroke:none;fill:black;font-family:sans-serif;font-size:13;text-anchor:end;" transform="matrix(1 0 0 1 3036 1969)">Generated from bandage</text>
  <text style="stroke:none;fill:black;font-family:sans-serif;font-size:13;text-anchor:end;" transform="matrix(1 0 0 1 3036 1987)">Typeset at 100 points</text>
  <text style="stroke:none;fill:black;font-family:sans-serif;font-size:13;" transform="matrix(1 0 0 1 263 726)">Small</text>
  <text style="stroke:none;fill:black;font-family:sans-serif;font-size:13;" transform="matrix(1 0 0 1 263 1156)">Medium</text>
  <text style="stroke:none;fill:black;font-family:sans-serif;font-size:13;" transform="matrix(1 0 0 1 263 1586)">Large</text>
 </g>
 <g id="Guides">
  <g id="H-reference" style="fill:#27AAE1;stroke:none;" transform="matrix(1 0 0 1 339 696)">
   <path d="M0.993347 0L3.6377 0L29.3282-67.1326L30.0301-67.1326L30.0301-70.459L28.1227-70.459ZM11.6882-24.4797L46.9818-24.4797L46.2311-26.7288L12.4382-26.7288ZM55.1193 0L57.7637 0L30.6381-70.459L29.4327-70.459L29.4327-67.1326Z"/>
  </g>
  <line id="Baseline-S" style="fill:none;stroke:#27AAE1;opacity:1;stroke-width:0.5;" x1="263" x2="3036" y1="696" y2="696"/>
  <line id="Capline-S" style="fill:none;stroke:#27AAE1;opacity:1;stroke-width:0.5;" x1="263" x2="3036" y1="625.541" y2="625.541"/>
  <g id="H-reference" style="fill:#27AAE1;stroke:none;" transform="matrix(1 0 0 1 339 1126)">
   <path d="M0.993347 0L3.6377 0L29.3282-67.1326L30.0301-67.1326L30.0301-70.459L28.1227-70.459ZM11.6882-24.4797L46.9818-24.4797L46.2311-26.7288L12.4382-26.7288ZM55.1193 0L57.7637 0L30.6381-70.459L29.4327-70.459L29.4327-67.1326Z"/>
  </g>
  <line id="Baseline-M" style="fill:none;stroke:#27AAE1;opacity:1;stroke-width:0.5;" x1="263" x2="3036" y1="1126" y2="1126"/>
  <line id="Capline-M" style="fill:none;stroke:#27AAE1;opacity:1;stroke-width:0.5;" x1="263" x2="3036" y1="1055.54" y2="1055.54"/>
  <g id="H-reference" style="fill:#27AAE1;stroke:none;" transform="matrix(1 0 0 1 339 1556)">
   <path d="M0.993347 0L3.6377 0L29.3282-67.1326L30.0301-67.1326L30.0301-70.459L28.1227-70.459ZM11.6882-24.4797L46.9818-24.4797L46.2311-26.7288L12.4382-26.7288ZM55.1193 0L57.7637 0L30.6381-70.459L29.4327-70.459L29.4327-67.1326Z"/>
  </g>
  <line id="Baseline-L" style="fill:none;stroke:#27AAE1;opacity:1;stroke-width:0.5;" x1="263" x2="3036" y1="1556" y2="1556"/>
  <line id="Capline-L" style="fill:none;stroke:#27AAE1;opacity:1;stroke-width:0.5;" x1="263" x2="3036" y1="1485.54" y2="1485.54"/>
  <line id="left-margin-Ultralight-S" style="fill:none;stroke:#00AEEF;stroke-width:0.5;opacity:1.0;" x1="513.325" x2="513.325" y1="600.785" y2="720.121"/>
  <line id="right-margin-Ultralight-S" style="fill:none;stroke:#00AEEF;stroke-width:0.5;opacity:1.0;" x1="606.097" x2="606.097" y1="600.785" y2="720.121"/>
  <line id="left-margin-Regular-S" style="fill:none;stroke:#00AEEF;stroke-width:0.5;opacity:1.0;" x1="1400.87" x2="1400.87" y1="600.785" y2="720.121"/>
  <line id="right-margin-Regular-S" style="fill:none;stroke:#00AEEF;stroke-width:0.5;opacity:1.0;" x1="1498.82" x2="1498.82" y1="600.785" y2="720.121"/>
  <line id="left-margin-Black-S" style="fill:none;stroke:#00AEEF;stroke-width:0.5;opacity:1.0;" x1="2881.57" x2="2881.57" y1="600.785" y2="720.121"/>
  <line id="right-margin-Black-S" style="fill:none;stroke:#00AEEF;stroke-width:0.5;opacity:1.0;" x1="2985.23" x2="2985.23" y1="600.785" y2="720.121"/>
 </g>
 <g id="Symbols">
  <g id="Black-S" transform="matrix(1 0 0 1 2881.57 696)">
   <path class="hierarchical-0:primary SFSymbolsPreview212121" d="M75.8301-45.459L61.8164-59.4727Q56.9824-64.3555 52.1973-64.4775Q47.4121-64.5996 42.334-59.5215L27.7344-44.873Q22.7051-39.8438 22.8271-35.083Q22.9492-30.3223 27.7832-25.4395L41.7969-11.4258Q46.6797-6.54297 51.4648-6.44531Q56.25-6.34766 61.2793-11.377L75.8789-26.0254Q80.957-31.1035 80.835-35.8398Q80.7129-40.5762 75.8301-45.459ZM53.1738-51.2695L67.6758-36.8164Q67.9199-36.6211 67.9199-36.4746Q67.9199-36.3281 67.6758-36.084L51.1719-19.5801Q51.0254-19.3848 50.8301-19.3848Q50.6348-19.3848 50.4395-19.5801L35.9863-34.1797Q35.8398-34.375 35.8398-34.5215Q35.8398-34.668 35.9863-34.8633L52.4902-51.2695Q52.6855-51.4648 52.8564-51.4648Q53.0273-51.4648 53.1738-51.2695ZM15.625 0.732422Q20.459 5.56641 26.6602 6.98242Q32.8613 8.39844 39.0625 6.54297Q45.2637 4.6875 50.1465-0.195312L61.2793-11.377L51.1719-19.5801L41.1621-9.52148Q38.7207-7.03125 35.791-5.83496Q32.8613-4.63867 29.9316-5.10254Q27.002-5.56641 24.4629-8.10547Q21.9727-10.5957 21.4844-13.501Q20.9961-16.4062 22.1924-19.3359Q23.3887-22.2656 25.9277-24.8047L35.9863-34.8633L27.7344-44.873L16.6016-33.8379Q11.6699-28.9551 9.83887-22.7295Q8.00781-16.5039 9.39941-10.3271Q10.791-4.15039 15.625 0.732422ZM87.9883-71.6309Q83.1543-76.5137 76.9775-77.9053Q70.8008-79.2969 64.5996-77.4658Q58.3984-75.6348 53.4668-70.7031L42.334-59.5215L52.4902-51.2695L62.5-61.377Q64.9902-63.8672 67.8955-65.0635Q70.8008-66.2598 73.7305-65.7959Q76.6602-65.332 79.1504-62.793Q81.6406-60.3027 82.1289-57.3975Q82.6172-54.4922 81.4453-51.5869Q80.2734-48.6816 77.7344-46.1426L67.6758-36.084L75.8789-26.0254L87.0117-37.0605Q91.9434-41.9922 93.7988-48.1934Q95.6543-54.3945 94.2383-60.5957Q92.8223-66.7969 87.9883-71.6309Z"/>
   <path class="hierarchical-1:secondary SFSymbolsPreview4D4D4D" d="M44.4824-32.5195Q45.6543-32.5195 46.46-33.4229Q47.2656-34.3262 47.2656-35.4004Q47.3145-36.6211 46.4844-37.4512Q45.6543-38.2812 44.4336-38.2812Q43.2617-38.2812 42.4561-37.4023Q41.6504-36.5234 41.6504-35.3516Q41.6504-34.2285 42.4561-33.374Q43.2617-32.5195 44.4824-32.5195ZM51.8066-25.1953Q52.9785-25.1953 53.7842-26.0254Q54.5898-26.8555 54.5898-28.0762Q54.5898-29.1992 53.7842-30.0781Q52.9785-30.957 51.8066-30.957Q50.5859-30.957 49.7803-30.0781Q48.9746-29.1992 48.9746-28.0762Q48.9746-26.9043 49.7803-26.0498Q50.5859-25.1953 51.8066-25.1953ZM51.8066-40.0391Q53.125-40.0391 53.9062-40.918Q54.6875-41.7969 54.6875-42.9199Q54.6875-44.043 53.8818-44.8975Q53.0762-45.752 51.8555-45.752Q50.6836-45.752 49.8535-44.9219Q49.0234-44.0918 49.0234-42.8711Q49.0234-41.7969 49.8535-40.918Q50.6836-40.0391 51.8066-40.0391ZM59.2285-32.7148Q60.4492-32.7148 61.2305-33.5693Q62.0117-34.4238 62.0117-35.5957Q62.0117-36.7188 61.2549-37.5732Q60.498-38.4277 59.1797-38.4277Q58.0566-38.4277 57.2266-37.5488Q56.3965-36.6699 56.3965-35.5957Q56.3965-34.375 57.2266-33.5449Q58.0566-32.7148 59.2285-32.7148Z"/>
  </g>
  <g id="Regular-S" transform="matrix(1 0 0 1 1400.87 696)">
   <path class="hierarchical-0:primary SFSymbolsPreview212121" d="M70.4102-42.8223L56.3477-56.8848Q52.7832-60.3516 49.3408-60.4004Q45.8984-60.4492 42.2852-56.8359L27.5879-42.1387Q23.9258-38.5254 23.9746-35.0586Q24.0234-31.5918 27.5391-28.0762L41.6016-14.0137Q45.166-10.498 48.6084-10.4492Q52.0508-10.4004 55.6641-14.0625L70.3613-28.7598Q74.0234-32.373 73.9746-35.8154Q73.9258-39.2578 70.4102-42.8223ZM52.3926-51.5137L65.0391-38.8672Q66.6016-37.3047 66.4795-35.9863Q66.3574-34.668 64.7461-33.0566L51.3184-19.6777Q49.7559-18.0664 48.4375-17.9443Q47.1191-17.8223 45.5566-19.3848L32.9102-31.9824Q31.3477-33.5449 31.4697-34.8633Q31.5918-36.1816 33.2031-37.793L46.6309-51.1719Q48.1934-52.832 49.5117-52.9541Q50.8301-53.0762 52.3926-51.5137ZM14.9414-1.36719Q19.043 2.73438 23.999 4.10156Q28.9551 5.46875 34.0576 3.97949Q39.1602 2.49023 43.7012-2.05078L55.6641-14.0625L50.6836-19.043L38.7695-7.08008Q35.791-4.15039 32.3975-2.9541Q29.0039-1.75781 25.6592-2.49023Q22.3145-3.22266 19.5312-6.00586Q16.748-8.78906 16.0156-12.1338Q15.2832-15.4785 16.4795-18.8721Q17.6758-22.2656 20.6543-25.1953L32.5684-37.1582L27.5879-42.1387L15.5762-30.127Q11.084-25.6348 9.57031-20.5322Q8.05664-15.4297 9.44824-10.4736Q10.8398-5.51758 14.9414-1.36719ZM83.0078-69.4824Q78.9062-73.584 73.9502-74.9756Q68.9941-76.3672 63.8916-74.8535Q58.7891-73.3398 54.248-68.8477L42.2852-56.8359L47.2656-51.8555L59.1797-63.7695Q62.1582-66.748 65.5518-67.9443Q68.9453-69.1406 72.29-68.4082Q75.6348-67.6758 78.418-64.8926Q81.2012-62.1094 81.9336-58.7646Q82.666-55.4199 81.4697-52.0264Q80.2734-48.6328 77.2949-45.6543L65.3809-33.7402L70.3613-28.7598L82.373-40.7227Q86.8652-45.2637 88.3789-50.3418Q89.8926-55.4199 88.501-60.4004Q87.1094-65.3809 83.0078-69.4824Z"/>
   <path class="hierarchical-1:secondary SFSymbolsPreview4D4D4D" d="M41.6504-32.0801Q43.0664-32.0801 44.043-33.0811Q45.0195-34.082 45.0195-35.4004Q45.0195-36.8164 44.0186-37.8418Q43.0176-38.8672 41.6504-38.8672Q40.1855-38.8672 39.209-37.8662Q38.2324-36.8652 38.2324-35.4492Q38.2324-34.082 39.209-33.0811Q40.1855-32.0801 41.6504-32.0801ZM48.9746-24.6582Q50.3906-24.6582 51.3672-25.6836Q52.3438-26.709 52.3438-28.125Q52.3438-29.4434 51.3672-30.4443Q50.3906-31.4453 49.0234-31.4453Q47.5586-31.4453 46.5576-30.4443Q45.5566-29.4434 45.5566-28.0762Q45.5566-26.6602 46.5332-25.6592Q47.5098-24.6582 48.9746-24.6582ZM48.9258-39.4531Q50.3906-39.4531 51.3672-40.4541Q52.3438-41.4551 52.3438-42.8223Q52.3926-44.2383 51.3916-45.2393Q50.3906-46.2402 48.9746-46.2402Q47.5586-46.2402 46.582-45.2393Q45.6055-44.2383 45.6055-42.7734Q45.6055-41.5039 46.6064-40.4785Q47.6074-39.4531 48.9258-39.4531ZM56.3477-32.0801Q57.7148-32.0801 58.7158-33.0811Q59.7168-34.082 59.7168-35.498Q59.7168-36.8652 58.7402-37.8662Q57.7637-38.8672 56.2988-38.8672Q54.9316-38.8672 53.9551-37.8418Q52.9785-36.8164 52.9785-35.5469Q52.9785-34.082 53.9551-33.0811Q54.9316-32.0801 56.3477-32.0801Z"/>
  </g>
  <g id="Ultralight-S" transform="matrix(1 0 0 1 513.325 696)">
   <path class="hierarchical-0:primary SFSymbolsPreview212121" d="M66.9136-40.7333L51.8974-55.7495Q49.2409-58.3992 46.7522-58.448Q44.2635-58.4969 41.5131-55.7007L25.9529-40.1405Q23.2445-37.4359 23.2479-34.9453Q23.2513-32.4547 25.9041-29.8019L40.9203-14.74Q43.5768-12.133 46.0655-12.1067Q48.5542-12.0804 51.3046-14.7888L66.8648-30.3947Q69.619-33.1451 69.5927-35.611Q69.5663-38.0768 66.9136-40.7333ZM50.1678-54.4655L65.6746-38.958Q67.646-36.9865 67.4786-35.3958Q67.3111-33.8051 65.2-31.694L49.9107-16.4993Q47.8035-14.4333 46.2353-14.2433Q44.6671-14.0533 42.6506-16.0248L27.1889-31.5285Q25.1717-33.4991 25.3391-35.1128Q25.5066-36.7264 27.6176-38.7917L42.907-53.9871Q45.015-56.1012 46.6057-56.2687Q48.1964-56.4362 50.1678-54.4655ZM13.8062-2.63901Q17.5446 1.14517 22.3415 2.05803Q27.1385 2.97089 32.0141 1.32294Q36.8896-0.325012 40.8401-4.32129L51.3046-14.7888L49.8665-16.5001L39.2693-5.80826Q35.7002-2.28882 31.4892-0.751877Q27.2781 0.785065 23.0709 0.00724792Q18.8637-0.770569 15.3534-4.1893Q11.7981-7.60803 11.0203-11.8156Q10.2425-16.0233 11.8248-20.3022Q13.4071-24.5811 16.9762-28.1013L27.5734-38.7932L25.9529-40.1405L15.4854-29.718Q11.4471-25.7256 9.82018-20.85Q8.19321-15.9744 9.13048-11.1774Q10.0677-6.38046 13.8062-2.63901ZM78.9665-67.8474Q75.2281-71.6316 70.4536-72.5689Q65.6792-73.5062 60.8036-71.8563Q55.928-70.2065 51.9775-66.214L41.5131-55.7007L42.952-54.0352L53.5492-64.6774Q57.1175-68.2465 61.3285-69.7834Q65.5396-71.3203 69.7472-70.5196Q73.9548-69.7189 77.4643-66.346Q81.0196-62.9265 81.7974-58.7193Q82.5752-54.512 80.9929-50.2327Q79.4106-45.9534 75.8415-42.3851L65.2443-31.7421L66.8648-30.3947L77.3323-40.8134Q81.3705-44.8097 82.975-49.6609Q84.5795-54.512 83.6422-59.3105Q82.7049-64.109 78.9665-67.8474Z"/>
   <path class="hierarchical-1:secondary SFSymbolsPreview4D4D4D" d="M38.6536-32.6706Q39.6606-32.6706 40.4327-33.4671Q41.2048-34.2636 41.2048-35.2188Q41.2048-36.2717 40.4312-37.0701Q39.6576-37.8685 38.6536-37.8685Q37.5519-37.8685 36.8252-37.0945Q36.0985-36.3205 36.0985-35.2676Q36.0985-34.2186 36.8023-33.4446Q37.5061-32.6706 38.6536-32.6706ZM46.4317-24.8856Q47.4846-24.8856 48.2342-25.6611Q48.9838-26.4366 48.9838-27.5345Q48.9838-28.4897 48.2342-29.2637Q47.4846-30.0377 46.4348-30.0377Q45.2881-30.0377 44.5824-29.2866Q43.8766-28.5355 43.8766-27.4857Q43.8766-26.4328 44.6033-25.6592Q45.33-24.8856 46.4317-24.8856ZM46.3829-40.5884Q47.4846-40.5884 48.2113-41.317Q48.938-42.0456 48.9838-43.0946Q49.0326-44.1475 48.2586-44.9215Q47.4846-45.6955 46.386-45.6955Q45.3789-45.6955 44.6293-44.9215Q43.8797-44.1475 43.8797-43.0458Q43.8797-42.0944 44.6312-41.3414Q45.3827-40.5884 46.3829-40.5884ZM54.2137-32.7156Q55.2628-32.7156 56.0139-33.4896Q56.765-34.2636 56.765-35.3165Q56.765-36.3655 56.0154-37.117Q55.2658-37.8685 54.2099-37.8685Q53.2059-37.8685 52.4338-37.0926Q51.6617-36.3167 51.6617-35.3653Q51.6617-34.2636 52.4113-33.4896Q53.1609-32.7156 54.2137-32.7156Z"/>
  </g>
 </g>
</svg>
